name ../AP_Laxity/ap_90.mot
datacolumns   7
datarows 58
range   7.00000000 7.57000000
cursor 1.0 1.0 0.0
keys m_key
wrap
enforce_loops no
enforce_constraints no
calc_derivatives -1.000000
event_color 0.000000 0.000000 0.000000
endheader
            time femur_r_force_vx femur_r_force_vy femur_r_force_vz femur_r_force_px femur_r_force_py femur_r_force_pz 
      7.00000000      -0.00000000      89.85662536       0.00000000      -0.06999998      -0.44905096       0.00000000 
      7.01000000      -0.00000000      90.00667740       0.00000000      -0.06999998      -0.44905096       0.00000000 
      7.02000000      -0.00000000      90.15573461       0.00000000      -0.06999998      -0.44905096       0.00000000 
      7.03000000      -0.00000000      90.30379327       0.00000000      -0.06999998      -0.44905096       0.00000000 
      7.04000000      -0.00000000      90.45084972       0.00000000      -0.06999998      -0.44905096       0.00000000 
      7.05000000      -0.00000000      90.59690029       0.00000000      -0.06999998      -0.44905096       0.00000000 
      7.06000000      -0.00000000      90.74194134       0.00000000      -0.06999998      -0.44905096       0.00000000 
      7.07000000      -0.00000000      90.88596928       0.00000000      -0.06999998      -0.44905096       0.00000000 
      7.08000000      -0.00000000      91.02898053       0.00000000      -0.06999998      -0.44905096       0.00000000 
      7.09000000      -0.00000000      91.17097151       0.00000000      -0.06999998      -0.44905096       0.00000000 
      7.10000000      -0.00000000      91.31193872       0.00000000      -0.06999998      -0.44905096       0.00000000 
      7.11000000      -0.00000000      91.45187863       0.00000000      -0.06999998      -0.44905096       0.00000000 
      7.12000000      -0.00000000      91.59078777       0.00000000      -0.06999998      -0.44905096       0.00000000 
      7.13000000      -0.00000000      91.72866269       0.00000000      -0.06999998      -0.44905096       0.00000000 
      7.14000000      -0.00000000      91.86549995       0.00000000      -0.06999998      -0.44905096       0.00000000 
      7.15000000      -0.00000000      92.00129616       0.00000000      -0.06999998      -0.44905096       0.00000000 
      7.16000000      -0.00000000      92.13604793       0.00000000      -0.06999998      -0.44905096       0.00000000 
      7.17000000      -0.00000000      92.26975192       0.00000000      -0.06999998      -0.44905096       0.00000000 
      7.18000000      -0.00000000      92.40240481       0.00000000      -0.06999998      -0.44905096       0.00000000 
      7.19000000      -0.00000000      92.53400328       0.00000000      -0.06999998      -0.44905096       0.00000000 
      7.20000000      -0.00000000      92.66454408       0.00000000      -0.06999998      -0.44905096       0.00000000 
      7.21000000      -0.00000000      92.79402395       0.00000000      -0.06999998      -0.44905096       0.00000000 
      7.22000000      -0.00000000      92.92243968       0.00000000      -0.06999998      -0.44905096       0.00000000 
      7.23000000      -0.00000000      93.04978807       0.00000000      -0.06999998      -0.44905096       0.00000000 
      7.24000000      -0.00000000      93.17606595       0.00000000      -0.06999998      -0.44905096       0.00000000 
      7.25000000      -0.00000000      93.30127019       0.00000000      -0.06999998      -0.44905096       0.00000000 
      7.26000000      -0.00000000      93.42539767       0.00000000      -0.06999998      -0.44905096       0.00000000 
      7.27000000      -0.00000000      93.54844530       0.00000000      -0.06999998      -0.44905096       0.00000000 
      7.28000000      -0.00000000      93.67041003       0.00000000      -0.06999998      -0.44905096       0.00000000 
      7.29000000      -0.00000000      93.79128882       0.00000000      -0.06999998      -0.44905096       0.00000000 
      7.30000000      -0.00000000      93.91107867       0.00000000      -0.06999998      -0.44905096       0.00000000 
      7.31000000      -0.00000000      94.02977659       0.00000000      -0.06999998      -0.44905096       0.00000000 
      7.32000000      -0.00000000      94.14737964       0.00000000      -0.06999998      -0.44905096       0.00000000 
      7.33000000      -0.00000000      94.26388489       0.00000000      -0.06999998      -0.44905096       0.00000000 
      7.34000000      -0.00000000      94.37928945       0.00000000      -0.06999998      -0.44905096       0.00000000 
      7.35000000      -0.00000000      94.49359044       0.00000000      -0.06999998      -0.44905096       0.00000000 
      7.36000000      -0.00000000      94.60678502       0.00000000      -0.06999998      -0.44905096       0.00000000 
      7.37000000      -0.00000000      94.71887038       0.00000000      -0.06999998      -0.44905096       0.00000000 
      7.38000000      -0.00000000      94.82984373       0.00000000      -0.06999998      -0.44905096       0.00000000 
      7.39000000      -0.00000000      94.93970231       0.00000000      -0.06999998      -0.44905096       0.00000000 
      7.40000000      -0.00000000      95.04844340       0.00000000      -0.06999998      -0.44905096       0.00000000 
      7.41000000      -0.00000000      95.15606427       0.00000000      -0.06999998      -0.44905096       0.00000000 
      7.42000000      -0.00000000      95.26256226       0.00000000      -0.06999998      -0.44905096       0.00000000 
      7.43000000      -0.00000000      95.36793473       0.00000000      -0.06999998      -0.44905096       0.00000000 
      7.44000000      -0.00000000      95.47217904       0.00000000      -0.06999998      -0.44905096       0.00000000 
      7.45000000      -0.00000000      95.57529262       0.00000000      -0.06999998      -0.44905096       0.00000000 
      7.46000000      -0.00000000      95.67727288       0.00000000      -0.06999998      -0.44905096       0.00000000 
      7.47000000      -0.00000000      95.77811731       0.00000000      -0.06999998      -0.44905096       0.00000000 
      7.48000000      -0.00000000      95.87782338       0.00000000      -0.06999998      -0.44905096       0.00000000 
      7.49000000      -0.00000000      95.97638863       0.00000000      -0.06999998      -0.44905096       0.00000000 
      7.50000000      -0.00000000      96.07381059       0.00000000      -0.06999998      -0.44905096       0.00000000 
      7.51000000      -0.00000000      96.17008686       0.00000000      -0.06999998      -0.44905096       0.00000000 
      7.52000000      -0.00000000      96.26521502       0.00000000      -0.06999998      -0.44905096       0.00000000 
      7.53000000      -0.00000000      96.35919273       0.00000000      -0.06999998      -0.44905096       0.00000000 
      7.54000000      -0.00000000      96.45201763       0.00000000      -0.06999998      -0.44905096       0.00000000 
      7.55000000      -0.00000000      96.54368743       0.00000000      -0.06999998      -0.44905096       0.00000000 
      7.56000000      -0.00000000      96.63419984       0.00000000      -0.06999998      -0.44905096       0.00000000 
      7.57000000      -0.00000000      96.72355262       0.00000000      -0.06999998      -0.44905096       0.00000000 
